<?xml version="1.0" encoding="UTF-8"?>
<svg version="1.1" xmlns="http://www.w3.org/2000/svg" width="96" height="96">
<path d="M0 0 C0.66 0 1.32 0 2 0 C2.17015625 0.60328125 2.3403125 1.2065625 2.515625 1.828125 C4.39701211 8.2935239 4.39701211 8.2935239 9 13 C11.7880624 14.50653275 11.7880624 14.50653275 15 14 C16.89720735 12.18488335 18.44560101 10.20610961 20.0703125 8.14453125 C24.9180391 2.757078 31.45088092 0.23895835 38.5390625 -0.23828125 C51.03419433 -0.58099088 58.90423455 1.45737137 68.28515625 10.1953125 C70 12 70 12 71 14 C75.13946216 13.80746688 76.70312083 13.28338466 79.75 10.375 C82.21282001 7.11235741 83.12787451 3.96420679 84 0 C84.66 0 85.32 0 86 0 C88.55206033 5.10412065 87.77327487 13.14109234 86.31640625 18.52734375 C84.6695204 22.08762395 82.96829363 24.15575013 79.75 26.375 C76.84642859 28.6363462 76.84642859 28.6363462 76.58203125 31.2109375 C76.5511411 35.22665744 77.0045939 39.14650791 77.5 43.125 C78.02089005 47.47093344 78.21701608 51.81413769 78.3125 56.1875 C78.34214844 56.86506348 78.37179688 57.54262695 78.40234375 58.24072266 C78.46249906 63.34765794 77.29156844 66.14073153 74 70 C68.58128111 74.75079876 63.69836172 74.58562922 56.6875 74.53125 C55.60041748 74.5350769 54.51333496 74.53890381 53.39331055 74.54284668 C51.10041373 74.54556241 48.80748575 74.53822511 46.51464844 74.52148438 C43.01166494 74.50007131 39.51073245 74.52129906 36.0078125 74.546875 C33.77603715 74.54423167 31.54426308 74.53910657 29.3125 74.53125 C28.26860107 74.53934692 27.22470215 74.54744385 26.14916992 74.55578613 C20.11376857 74.4782313 16.58821366 74.03306922 12 70 C8.11191664 65.27124997 6.7834092 61.06024819 7.11157227 54.90844727 C7.34708926 52.66133809 7.63376344 50.42637067 7.9375 48.1875 C8.12688248 46.59412528 8.3131055 45.00037171 8.49609375 43.40625 C8.58358887 42.64699219 8.67108398 41.88773438 8.76123047 41.10546875 C9.59000823 35.03338673 9.59000823 35.03338673 9 29 C6.53022097 26.50426766 6.53022097 26.50426766 4.6015625 25.23828125 C1.45257253 22.80357437 0.0258311 19.79264413 -1 16 C-1.94396961 3.88793922 -1.94396961 3.88793922 0 0 Z " fill="#7BB141" transform="translate(5,10)"/>
<path d="M0 0 C1.54300781 -0.00386719 1.54300781 -0.00386719 3.1171875 -0.0078125 C5.899648 0.11504939 8.41739874 0.49555764 11.125 1.125 C11.62 4.095 11.62 4.095 12.125 7.125 C12.99125 6.5990625 12.99125 6.5990625 13.875 6.0625 C16.125 5.125 16.125 5.125 18.125 5.1875 C21.13457296 6.59823733 22.36008518 8.32547994 24.125 11.125 C25.50147059 17.37205882 25.50147059 17.37205882 24.125 20.125 C23.135 20.125 22.145 20.125 21.125 20.125 C20.63 16.66 20.63 16.66 20.125 13.125 C19.465 13.125 18.805 13.125 18.125 13.125 C16.4803326 15.58826712 16.4803326 15.58826712 15.125 18.125 C13.8875 17.96 12.65 17.795 11.375 17.625 C3.27476774 16.73065259 -4.84539462 16.66507175 -12.875 18.125 C-13.32875 17.3 -13.7825 16.475 -14.25 15.625 C-14.78625 14.8 -15.3225 13.975 -15.875 13.125 C-16.535 13.125 -17.195 13.125 -17.875 13.125 C-18.205 15.435 -18.535 17.745 -18.875 20.125 C-20.195 19.795 -21.515 19.465 -22.875 19.125 C-23.38047389 13.8175242 -22.10243563 11.30168141 -18.875 7.125 C-18.215 6.465 -17.555 5.805 -16.875 5.125 C-14.42401444 5.52032025 -12.23595721 6.33801426 -9.875 7.125 C-9.545 5.145 -9.215 3.165 -8.875 1.125 C-5.68374596 0.06124865 -3.35029029 -0.00835484 0 0 Z " fill="#206021" transform="translate(46.875,53.875)"/>
<path d="M0 0 C0.33 1.65 0.66 3.3 1 5 C-3.75 8 -3.75 8 -6 8 C-5.6596875 9.3921875 -5.6596875 9.3921875 -5.3125 10.8125 C-5 14 -5 14 -6.0625 15.9375 C-8.96039451 17.52666796 -10.90302504 16.87523205 -14 16 C-14.33 15.34 -14.66 14.68 -15 14 C-15.825 13.731875 -16.65 13.46375 -17.5 13.1875 C-18.325 12.795625 -19.15 12.40375 -20 12 C-20.8125 9.375 -20.8125 9.375 -21 7 C-14.85845969 2.47465451 -7.76155465 -2.14445806 0 0 Z " fill="#1F6120" transform="translate(71,25)"/>
<path d="M0 0 C4.65868948 0.35058155 8.56673317 1.86730568 12.8125 3.75 C14.52373047 4.48476563 14.52373047 4.48476563 16.26953125 5.234375 C19 7 19 7 19.88671875 9.703125 C19.92410156 10.46109375 19.96148437 11.2190625 20 12 C18.6078125 12.6496875 18.6078125 12.6496875 17.1875 13.3125 C14.05168936 14.72334447 14.05168936 14.72334447 12.5 16.75 C12.005 17.1625 11.51 17.575 11 18 C7.8125 17.6875 7.8125 17.6875 5 17 C3.875 11.25 3.875 11.25 5 9 C3.02 8.34 1.04 7.68 -1 7 C-1.625 4.625 -1.625 4.625 -2 2 C-1.34 1.34 -0.68 0.68 0 0 Z " fill="#1D5F20" transform="translate(26,24)"/>
<path d="M0 0 C0.66 0 1.32 0 2 0 C4.54982408 5.09964815 3.75544209 13.09655388 2.3515625 18.4921875 C0.09451121 23.44998391 -3.55493514 26.91995506 -8 30 C-8.33 30 -8.66 30 -9 30 C-10 25 -11 20 -12 15 C-11.0925 14.608125 -10.185 14.21625 -9.25 13.8125 C-4.54226879 11.18703452 -2.24177312 8.31547008 -0.75 3.1875 C-0.5025 2.135625 -0.255 1.08375 0 0 Z " fill="#6C4C41" transform="translate(89,10)"/>
<path d="M0 0 C0.66 0 1.32 0 2 0 C2.17015625 0.60328125 2.3403125 1.2065625 2.515625 1.828125 C4.43765229 8.24406639 4.43765229 8.24406639 9 13 C11.63222962 14.25436187 11.63222962 14.25436187 14 15 C13 20 12 25 11 30 C5.15370481 26.60099117 1.1710316 22.51309481 -1 16 C-1.09511161 13.64738643 -1.12986976 11.29203033 -1.125 8.9375 C-1.12757812 7.68839844 -1.13015625 6.43929688 -1.1328125 5.15234375 C-1 2 -1 2 0 0 Z " fill="#6B4B40" transform="translate(5,10)"/>
<path d="M0 0 C1.32 0 2.64 0 4 0 C5.52247479 0.07651953 7.04374787 0.18144017 8.5625 0.3125 C9.32691406 0.37050781 10.09132813 0.42851563 10.87890625 0.48828125 C13.42849608 1.10337566 14.40953086 1.94204472 16 4 C16 4.66 16 5.32 16 6 C14.14375 5.7525 14.14375 5.7525 12.25 5.5 C4.14976774 4.60565259 -3.97039462 4.54007175 -12 6 C-9.39567536 -0.00997994 -6.19842325 -0.21748853 0 0 Z " fill="#F43F01" transform="translate(46,66)"/>
<path d="M0 0 C1.65 0.33 3.3 0.66 5 1 C5.35671933 4.83473284 5.29771416 6.55342875 3.125 9.8125 C0.61855093 12.39266816 -0.25461673 12.91717964 -3.8125 13.3125 C-7.77082892 12.92442854 -9.25286366 11.82562595 -12 9 C-12.8125 6.75 -12.8125 6.75 -13 5 C-10.525 5.495 -10.525 5.495 -8 6 C-8 6.66 -8 7.32 -8 8 C-5.36 8 -2.72 8 0 8 C0 5.36 0 2.72 0 0 Z " fill="#F2E102" transform="translate(65,33)"/>
<path d="M0 0 C1.32 0 2.64 0 4 0 C4 2.64 4 5.28 4 8 C6.64 8 9.28 8 12 8 C12.33 7.01 12.66 6.02 13 5 C14.32 5.33 15.64 5.66 17 6 C15.19587357 9.26460973 14.16605307 10.88929795 11 13 C7.1026276 13.50835292 5.49443274 13.32962183 2.1875 11.125 C-0.53899715 8.47640277 -0.96952487 7.74664057 -1.125 3.9375 C-1 1 -1 1 0 0 Z " fill="#F3E201" transform="translate(27,33)"/>
<path d="M0 0 C1.0725 0.66 2.145 1.32 3.25 2 C3.25 2.33 3.25 2.66 3.25 3 C2.6202124 2.99476318 1.9904248 2.98952637 1.34155273 2.98413086 C-1.54312115 2.96319862 -4.42777898 2.9502885 -7.3125 2.9375 C-8.30314453 2.92912109 -9.29378906 2.92074219 -10.31445312 2.91210938 C-15.57548699 2.89463086 -20.56764665 3.07691602 -25.75 4 C-19.15793019 -3.32452201 -8.75030028 -4.39854667 0 0 Z " fill="#588E30" transform="translate(58.75,76)"/>
<path d="M0 0 C0.33 0 0.66 0 1 0 C1.09796875 0.61488281 1.1959375 1.22976562 1.296875 1.86328125 C2.1563784 6.84712972 2.1563784 6.84712972 4.75 11.0625 C7.74692888 12.31122037 9.77595063 12.39478156 13 12 C15.81780534 10.61114752 15.81780534 10.61114752 18 9 C17.01158836 11.6956681 16.30627815 12.81623311 13.8125 14.3125 C10.1515807 15.20739139 7.64619779 14.92812307 4 14 C1.6818638 12.10888889 0.33085985 10.66171969 -1 8 C-1.125 4.4375 -1.125 4.4375 -1 1 C-0.67 0.67 -0.34 0.34 0 0 Z " fill="#5E922F" transform="translate(25,33)"/>
<path d="M0 0 C2 2 2 2 2.3125 4.8125 C1.9597604 8.4104439 1.20840123 10.16062698 -1 13 C-4.21855225 15.33067577 -7.10490526 15.46741137 -11 15 C-14.375 13 -14.375 13 -17 11 C-16.67 10.34 -16.34 9.68 -16 9 C-15.46375 9.495 -14.9275 9.99 -14.375 10.5 C-11.25991849 12.4674199 -9.62829011 12.5923739 -6 12 C-2.28180527 9.27332387 -1.15500269 7.72732031 -0.1875 3.1875 C-0.125625 2.135625 -0.06375 1.08375 0 0 Z " fill="#5E912F" transform="translate(70,33)"/>
<path d="M0 0 C-0.33 1.98 -0.66 3.96 -1 6 C-3.8125 6.6875 -3.8125 6.6875 -7 7 C-8.875 5.6875 -8.875 5.6875 -10 4 C-10 3.34 -10 2.68 -10 2 C-3.375 -1.125 -3.375 -1.125 0 0 Z " fill="#0C0D01" transform="translate(66,35)"/>
<path d="M0 0 C2.97 0.99 5.94 1.98 9 3 C8.67 4.32 8.34 5.64 8 7 C2.56559513 8.32841008 2.56559513 8.32841008 0.0625 6.875 C-1 5 -1 5 -0.6875 2.3125 C-0.460625 1.549375 -0.23375 0.78625 0 0 Z " fill="#0C0C00" transform="translate(31,34)"/>
<path d="M0 0 C0.99 0.33 1.98 0.66 3 1 C3 2.98 3 4.96 3 7 C1.02 7 -0.96 7 -3 7 C-1.125 1.125 -1.125 1.125 0 0 Z " fill="#D6D8D4" transform="translate(65,66)"/>
<path d="M0 0 C0.99 0.33 1.98 0.66 3 1 C4.1875 4.0625 4.1875 4.0625 5 7 C3.02 7 1.04 7 -1 7 C-1.04254356 5.00045254 -1.04080783 2.99958364 -1 1 C-0.67 0.67 -0.34 0.34 0 0 Z " fill="#D6D8D5" transform="translate(29,66)"/>
<path d="M0 0 C1.98 0.495 1.98 0.495 4 1 C4.33 2.32 4.66 3.64 5 5 C3.125 5.625 3.125 5.625 1 6 C0.34 5.34 -0.32 4.68 -1 4 C-0.625 1.875 -0.625 1.875 0 0 Z " fill="#69A038" transform="translate(69,50)"/>
<path d="M0 0 C1.98 0.495 1.98 0.495 4 1 C4.33 2.32 4.66 3.64 5 5 C3.125 5.625 3.125 5.625 1 6 C0.34 5.34 -0.32 4.68 -1 4 C-0.625 1.875 -0.625 1.875 0 0 Z " fill="#69A038" transform="translate(39,16)"/>
<path d="M0 0 C2.475 0.99 2.475 0.99 5 2 C4.34 3.32 3.68 4.64 3 6 C2.01 5.67 1.02 5.34 0 5 C0 3.35 0 1.7 0 0 Z " fill="#D8DBD9" transform="translate(58,56)"/>
<path d="M0 0 C0 1.65 0 3.3 0 5 C-1.32 5 -2.64 5 -4 5 C-4 3.68 -4 2.36 -4 1 C-2 0 -2 0 0 0 Z " fill="#D8DBD8" transform="translate(38,56)"/>
</svg>
